<svg width="15px" height="15px" id="Guide"  viewBox="0 0 512 512" xmlns="http://www.w3.org/2000/svg"><g fill="black"><path d="m36 10a26.03 26.03 0 0 0 -26 26v83.186a6 6 0 0 0 12 0v-83.186a14.015 14.015 0 0 1 14-14h90.123a6 6 0 0 0 0-12z"/><path d="m496 382.025a6 6 0 0 0 -6 6v87.975a14.015 14.015 0 0 1 -14 14h-83.558a6 6 0 0 0 0 12h83.558a26.029 26.029 0 0 0 26-26v-87.975a6 6 0 0 0 -6-6z"/><path d="m476 10h-81.878a6 6 0 0 0 0 12h81.878a14.015 14.015 0 0 1 14 14v78.985a6 6 0 1 0 12 0v-78.985a26.03 26.03 0 0 0 -26-26z"/><path d="m113.521 490h-77.521a14.015 14.015 0 0 1 -14-14v-77.053a6 6 0 0 0 -12 0v77.053a26.029 26.029 0 0 0 26 26h77.521a6 6 0 0 0 0-12z"/><path d="m415.307 392.812v-273.623a26.029 26.029 0 0 0 -26-26h-266.614a26.029 26.029 0 0 0 -26 26v273.623a26.03 26.03 0 0 0 26 26h266.614a26.03 26.03 0 0 0 26-26zm-306.614 0v-273.623a14.015 14.015 0 0 1 14-14h266.614a14.015 14.015 0 0 1 14 14v273.623a14.016 14.016 0 0 1 -14 14h-266.614a14.016 14.016 0 0 1 -14-14z"/></g></svg>